<mxfile host="app.diagrams.net" modified="2023-07-11T15:23:45.518Z" agent="Mozilla/5.0 (Windows NT 10.0; Win64; x64) AppleWebKit/537.36 (KHTML, like Gecko) Chrome/114.0.0.0 Safari/537.36" version="21.6.1" etag="BEI_RFMYeULd1IrGJRtY" type="github">
  <diagram name="PÃ¡gina-1" id="2n88ejJmW5V8uPBxt86R">
    <mxGraphModel>
      <root>
        <mxCell id="0" />
        <mxCell id="1" parent="0" />
      </root>
    </mxGraphModel>
  </diagram>
</mxfile>
